<mxfile host="65bd71144e">
    <diagram id="Foc1_TSwE2LtMFlAXlqF" name="Page-1">
        <mxGraphModel dx="1843" dy="2226" grid="1" gridSize="10" guides="1" tooltips="1" connect="1" arrows="1" fold="1" page="1" pageScale="1" pageWidth="850" pageHeight="1100" math="0" shadow="0">
            <root>
                <mxCell id="0"/>
                <mxCell id="1" parent="0"/>
                <mxCell id="143" value="..." style="text;html=1;strokeColor=none;fillColor=none;align=center;verticalAlign=bottom;whiteSpace=wrap;rounded=0;fontSize=50;fontStyle=1" vertex="1" parent="1">
                    <mxGeometry x="785" y="760" width="70" height="30" as="geometry"/>
                </mxCell>
                <mxCell id="2" style="edgeStyle=orthogonalEdgeStyle;html=1;fontSize=32;endArrow=block;endFill=1;endSize=20;entryX=1;entryY=0.25;entryDx=0;entryDy=0;startArrow=none;" edge="1" parent="1" source="54" target="28">
                    <mxGeometry relative="1" as="geometry">
                        <mxPoint x="820" y="140" as="targetPoint"/>
                        <Array as="points">
                            <mxPoint x="820" y="230"/>
                        </Array>
                    </mxGeometry>
                </mxCell>
                <mxCell id="3" value="" style="rounded=1;whiteSpace=wrap;html=1;strokeColor=#000000;" vertex="1" parent="1">
                    <mxGeometry x="90" y="80" width="670" height="80" as="geometry"/>
                </mxCell>
                <mxCell id="4" value="t0" style="text;html=1;strokeColor=none;fillColor=none;align=center;verticalAlign=middle;whiteSpace=wrap;rounded=0;fontSize=17;" vertex="1" parent="1">
                    <mxGeometry x="480" y="105" width="100" height="30" as="geometry"/>
                </mxCell>
                <mxCell id="5" value="2" style="text;html=1;strokeColor=none;fillColor=none;align=center;verticalAlign=middle;whiteSpace=wrap;rounded=0;fontSize=22;" vertex="1" parent="1">
                    <mxGeometry x="650" y="105" width="60" height="30" as="geometry"/>
                </mxCell>
                <mxCell id="6" value="t1" style="text;html=1;strokeColor=none;fillColor=none;align=center;verticalAlign=middle;whiteSpace=wrap;rounded=0;fontSize=17;" vertex="1" parent="1">
                    <mxGeometry x="349.83" y="104.66999999999999" width="100" height="30" as="geometry"/>
                </mxCell>
                <mxCell id="7" value="add t0 t1 t0" style="text;html=1;strokeColor=none;fillColor=none;align=center;verticalAlign=middle;whiteSpace=wrap;rounded=0;fontSize=32;" vertex="1" parent="1">
                    <mxGeometry x="150" y="104.67" width="190" height="30" as="geometry"/>
                </mxCell>
                <mxCell id="8" style="edgeStyle=orthogonalEdgeStyle;html=1;fontSize=32;endArrow=block;endFill=1;endSize=20;entryX=1;entryY=0.25;entryDx=0;entryDy=0;" edge="1" parent="1" target="3" source="56">
                    <mxGeometry relative="1" as="geometry">
                        <mxPoint x="830" y="110" as="targetPoint"/>
                        <mxPoint x="820" y="10" as="sourcePoint"/>
                        <Array as="points">
                            <mxPoint x="820" y="-30"/>
                            <mxPoint x="820" y="60"/>
                        </Array>
                    </mxGeometry>
                </mxCell>
                <mxCell id="9" value="" style="endArrow=none;html=1;strokeWidth=2;" edge="1" parent="1">
                    <mxGeometry width="50" height="50" relative="1" as="geometry">
                        <mxPoint x="750" y="145" as="sourcePoint"/>
                        <mxPoint x="750" y="95" as="targetPoint"/>
                    </mxGeometry>
                </mxCell>
                <mxCell id="10" value="" style="endArrow=none;html=1;strokeWidth=2;" edge="1" parent="1">
                    <mxGeometry width="50" height="50" relative="1" as="geometry">
                        <mxPoint x="750" y="145" as="sourcePoint"/>
                        <mxPoint x="740" y="145" as="targetPoint"/>
                    </mxGeometry>
                </mxCell>
                <mxCell id="11" value="" style="endArrow=none;html=1;strokeWidth=2;" edge="1" parent="1">
                    <mxGeometry width="50" height="50" relative="1" as="geometry">
                        <mxPoint x="750" y="95" as="sourcePoint"/>
                        <mxPoint x="740" y="95" as="targetPoint"/>
                    </mxGeometry>
                </mxCell>
                <mxCell id="12" value="" style="endArrow=none;html=1;strokeWidth=2;" edge="1" parent="1">
                    <mxGeometry width="50" height="50" relative="1" as="geometry">
                        <mxPoint x="610" y="145" as="sourcePoint"/>
                        <mxPoint x="610" y="95" as="targetPoint"/>
                    </mxGeometry>
                </mxCell>
                <mxCell id="13" value="" style="endArrow=none;html=1;strokeWidth=2;" edge="1" parent="1">
                    <mxGeometry width="50" height="50" relative="1" as="geometry">
                        <mxPoint x="620" y="145" as="sourcePoint"/>
                        <mxPoint x="610" y="145" as="targetPoint"/>
                    </mxGeometry>
                </mxCell>
                <mxCell id="14" value="" style="endArrow=none;html=1;strokeWidth=2;" edge="1" parent="1">
                    <mxGeometry width="50" height="50" relative="1" as="geometry">
                        <mxPoint x="620" y="95" as="sourcePoint"/>
                        <mxPoint x="610" y="95" as="targetPoint"/>
                    </mxGeometry>
                </mxCell>
                <mxCell id="15" value="" style="endArrow=none;html=1;strokeWidth=2;" edge="1" parent="1">
                    <mxGeometry width="50" height="50" relative="1" as="geometry">
                        <mxPoint x="470" y="144.86" as="sourcePoint"/>
                        <mxPoint x="470" y="94.86000000000001" as="targetPoint"/>
                    </mxGeometry>
                </mxCell>
                <mxCell id="16" value="" style="endArrow=none;html=1;strokeWidth=2;" edge="1" parent="1">
                    <mxGeometry width="50" height="50" relative="1" as="geometry">
                        <mxPoint x="480" y="144.86" as="sourcePoint"/>
                        <mxPoint x="470" y="144.86" as="targetPoint"/>
                    </mxGeometry>
                </mxCell>
                <mxCell id="17" value="" style="endArrow=none;html=1;strokeWidth=2;" edge="1" parent="1">
                    <mxGeometry width="50" height="50" relative="1" as="geometry">
                        <mxPoint x="480" y="94.86000000000001" as="sourcePoint"/>
                        <mxPoint x="470" y="94.86000000000001" as="targetPoint"/>
                    </mxGeometry>
                </mxCell>
                <mxCell id="18" value="" style="endArrow=none;html=1;strokeWidth=2;" edge="1" parent="1">
                    <mxGeometry width="50" height="50" relative="1" as="geometry">
                        <mxPoint x="590" y="144.39" as="sourcePoint"/>
                        <mxPoint x="590" y="94.38999999999999" as="targetPoint"/>
                    </mxGeometry>
                </mxCell>
                <mxCell id="19" value="" style="endArrow=none;html=1;strokeWidth=2;" edge="1" parent="1">
                    <mxGeometry width="50" height="50" relative="1" as="geometry">
                        <mxPoint x="590" y="144.39" as="sourcePoint"/>
                        <mxPoint x="580" y="144.39" as="targetPoint"/>
                    </mxGeometry>
                </mxCell>
                <mxCell id="20" value="" style="endArrow=none;html=1;strokeWidth=2;" edge="1" parent="1">
                    <mxGeometry width="50" height="50" relative="1" as="geometry">
                        <mxPoint x="590" y="94.38999999999999" as="sourcePoint"/>
                        <mxPoint x="580" y="94.38999999999999" as="targetPoint"/>
                    </mxGeometry>
                </mxCell>
                <mxCell id="21" value="" style="endArrow=none;html=1;strokeWidth=2;" edge="1" parent="1">
                    <mxGeometry width="50" height="50" relative="1" as="geometry">
                        <mxPoint x="349.8299999999999" y="144.5" as="sourcePoint"/>
                        <mxPoint x="349.8299999999999" y="94.5" as="targetPoint"/>
                    </mxGeometry>
                </mxCell>
                <mxCell id="22" value="" style="endArrow=none;html=1;strokeWidth=2;" edge="1" parent="1">
                    <mxGeometry width="50" height="50" relative="1" as="geometry">
                        <mxPoint x="359.8299999999999" y="144.5" as="sourcePoint"/>
                        <mxPoint x="349.8299999999999" y="144.5" as="targetPoint"/>
                    </mxGeometry>
                </mxCell>
                <mxCell id="23" value="" style="endArrow=none;html=1;strokeWidth=2;" edge="1" parent="1">
                    <mxGeometry width="50" height="50" relative="1" as="geometry">
                        <mxPoint x="359.8299999999999" y="94.5" as="sourcePoint"/>
                        <mxPoint x="349.8299999999999" y="94.5" as="targetPoint"/>
                    </mxGeometry>
                </mxCell>
                <mxCell id="24" value="" style="endArrow=none;html=1;strokeWidth=2;" edge="1" parent="1">
                    <mxGeometry width="50" height="50" relative="1" as="geometry">
                        <mxPoint x="449.54999999999995" y="144.86" as="sourcePoint"/>
                        <mxPoint x="449.54999999999995" y="94.86000000000001" as="targetPoint"/>
                    </mxGeometry>
                </mxCell>
                <mxCell id="25" value="" style="endArrow=none;html=1;strokeWidth=2;" edge="1" parent="1">
                    <mxGeometry width="50" height="50" relative="1" as="geometry">
                        <mxPoint x="449.54999999999995" y="144.86" as="sourcePoint"/>
                        <mxPoint x="439.54999999999995" y="144.86" as="targetPoint"/>
                    </mxGeometry>
                </mxCell>
                <mxCell id="26" value="" style="endArrow=none;html=1;strokeWidth=2;" edge="1" parent="1">
                    <mxGeometry width="50" height="50" relative="1" as="geometry">
                        <mxPoint x="449.54999999999995" y="94.86000000000001" as="sourcePoint"/>
                        <mxPoint x="439.54999999999995" y="94.86000000000001" as="targetPoint"/>
                    </mxGeometry>
                </mxCell>
                <mxCell id="27" value="1" style="text;html=1;strokeColor=none;fillColor=none;align=center;verticalAlign=middle;whiteSpace=wrap;rounded=0;fontSize=32;" vertex="1" parent="1">
                    <mxGeometry x="100" y="104.67" width="60" height="30" as="geometry"/>
                </mxCell>
                <mxCell id="28" value="" style="rounded=1;whiteSpace=wrap;html=1;strokeColor=#000000;" vertex="1" parent="1">
                    <mxGeometry x="90" y="210" width="670" height="80" as="geometry"/>
                </mxCell>
                <mxCell id="29" value="t0" style="text;html=1;strokeColor=none;fillColor=none;align=center;verticalAlign=middle;whiteSpace=wrap;rounded=0;fontSize=17;" vertex="1" parent="1">
                    <mxGeometry x="480" y="235" width="100" height="30" as="geometry"/>
                </mxCell>
                <mxCell id="30" value="3" style="text;html=1;strokeColor=none;fillColor=none;align=center;verticalAlign=middle;whiteSpace=wrap;rounded=0;fontSize=22;" vertex="1" parent="1">
                    <mxGeometry x="650" y="235" width="60" height="30" as="geometry"/>
                </mxCell>
                <mxCell id="31" value="t2, t0" style="text;html=1;strokeColor=none;fillColor=none;align=center;verticalAlign=middle;whiteSpace=wrap;rounded=0;fontSize=17;" vertex="1" parent="1">
                    <mxGeometry x="349.83" y="234.67" width="100" height="30" as="geometry"/>
                </mxCell>
                <mxCell id="32" value="sub t2 t0 t0" style="text;html=1;strokeColor=none;fillColor=none;align=center;verticalAlign=middle;whiteSpace=wrap;rounded=0;fontSize=32;" vertex="1" parent="1">
                    <mxGeometry x="150" y="234.67000000000002" width="190" height="30" as="geometry"/>
                </mxCell>
                <mxCell id="33" value="" style="endArrow=none;html=1;strokeWidth=2;" edge="1" parent="1">
                    <mxGeometry width="50" height="50" relative="1" as="geometry">
                        <mxPoint x="750" y="275" as="sourcePoint"/>
                        <mxPoint x="750" y="225" as="targetPoint"/>
                    </mxGeometry>
                </mxCell>
                <mxCell id="34" value="" style="endArrow=none;html=1;strokeWidth=2;" edge="1" parent="1">
                    <mxGeometry width="50" height="50" relative="1" as="geometry">
                        <mxPoint x="750" y="275" as="sourcePoint"/>
                        <mxPoint x="740" y="275" as="targetPoint"/>
                    </mxGeometry>
                </mxCell>
                <mxCell id="35" value="" style="endArrow=none;html=1;strokeWidth=2;" edge="1" parent="1">
                    <mxGeometry width="50" height="50" relative="1" as="geometry">
                        <mxPoint x="750" y="225" as="sourcePoint"/>
                        <mxPoint x="740" y="225" as="targetPoint"/>
                    </mxGeometry>
                </mxCell>
                <mxCell id="36" value="" style="endArrow=none;html=1;strokeWidth=2;" edge="1" parent="1">
                    <mxGeometry width="50" height="50" relative="1" as="geometry">
                        <mxPoint x="610" y="275" as="sourcePoint"/>
                        <mxPoint x="610" y="225" as="targetPoint"/>
                    </mxGeometry>
                </mxCell>
                <mxCell id="37" value="" style="endArrow=none;html=1;strokeWidth=2;" edge="1" parent="1">
                    <mxGeometry width="50" height="50" relative="1" as="geometry">
                        <mxPoint x="620" y="275" as="sourcePoint"/>
                        <mxPoint x="610" y="275" as="targetPoint"/>
                    </mxGeometry>
                </mxCell>
                <mxCell id="38" value="" style="endArrow=none;html=1;strokeWidth=2;" edge="1" parent="1">
                    <mxGeometry width="50" height="50" relative="1" as="geometry">
                        <mxPoint x="620" y="225" as="sourcePoint"/>
                        <mxPoint x="610" y="225" as="targetPoint"/>
                    </mxGeometry>
                </mxCell>
                <mxCell id="39" value="" style="endArrow=none;html=1;strokeWidth=2;" edge="1" parent="1">
                    <mxGeometry width="50" height="50" relative="1" as="geometry">
                        <mxPoint x="470" y="274.8600000000001" as="sourcePoint"/>
                        <mxPoint x="470" y="224.86" as="targetPoint"/>
                    </mxGeometry>
                </mxCell>
                <mxCell id="40" value="" style="endArrow=none;html=1;strokeWidth=2;" edge="1" parent="1">
                    <mxGeometry width="50" height="50" relative="1" as="geometry">
                        <mxPoint x="480" y="274.8600000000001" as="sourcePoint"/>
                        <mxPoint x="470" y="274.8600000000001" as="targetPoint"/>
                    </mxGeometry>
                </mxCell>
                <mxCell id="41" value="" style="endArrow=none;html=1;strokeWidth=2;" edge="1" parent="1">
                    <mxGeometry width="50" height="50" relative="1" as="geometry">
                        <mxPoint x="480" y="224.86" as="sourcePoint"/>
                        <mxPoint x="470" y="224.86" as="targetPoint"/>
                    </mxGeometry>
                </mxCell>
                <mxCell id="42" value="" style="endArrow=none;html=1;strokeWidth=2;" edge="1" parent="1">
                    <mxGeometry width="50" height="50" relative="1" as="geometry">
                        <mxPoint x="590" y="274.3899999999999" as="sourcePoint"/>
                        <mxPoint x="590" y="224.39" as="targetPoint"/>
                    </mxGeometry>
                </mxCell>
                <mxCell id="43" value="" style="endArrow=none;html=1;strokeWidth=2;" edge="1" parent="1">
                    <mxGeometry width="50" height="50" relative="1" as="geometry">
                        <mxPoint x="590" y="274.3899999999999" as="sourcePoint"/>
                        <mxPoint x="580" y="274.3899999999999" as="targetPoint"/>
                    </mxGeometry>
                </mxCell>
                <mxCell id="44" value="" style="endArrow=none;html=1;strokeWidth=2;" edge="1" parent="1">
                    <mxGeometry width="50" height="50" relative="1" as="geometry">
                        <mxPoint x="590" y="224.39" as="sourcePoint"/>
                        <mxPoint x="580" y="224.39" as="targetPoint"/>
                    </mxGeometry>
                </mxCell>
                <mxCell id="45" value="" style="endArrow=none;html=1;strokeWidth=2;" edge="1" parent="1">
                    <mxGeometry width="50" height="50" relative="1" as="geometry">
                        <mxPoint x="349.8299999999997" y="274.5" as="sourcePoint"/>
                        <mxPoint x="349.8299999999997" y="224.5" as="targetPoint"/>
                    </mxGeometry>
                </mxCell>
                <mxCell id="46" value="" style="endArrow=none;html=1;strokeWidth=2;" edge="1" parent="1">
                    <mxGeometry width="50" height="50" relative="1" as="geometry">
                        <mxPoint x="359.8299999999997" y="274.5" as="sourcePoint"/>
                        <mxPoint x="349.8299999999997" y="274.5" as="targetPoint"/>
                    </mxGeometry>
                </mxCell>
                <mxCell id="47" value="" style="endArrow=none;html=1;strokeWidth=2;" edge="1" parent="1">
                    <mxGeometry width="50" height="50" relative="1" as="geometry">
                        <mxPoint x="359.8299999999997" y="224.5" as="sourcePoint"/>
                        <mxPoint x="349.8299999999997" y="224.5" as="targetPoint"/>
                    </mxGeometry>
                </mxCell>
                <mxCell id="48" value="" style="endArrow=none;html=1;strokeWidth=2;" edge="1" parent="1">
                    <mxGeometry width="50" height="50" relative="1" as="geometry">
                        <mxPoint x="449.54999999999995" y="274.8600000000001" as="sourcePoint"/>
                        <mxPoint x="449.54999999999995" y="224.86" as="targetPoint"/>
                    </mxGeometry>
                </mxCell>
                <mxCell id="49" value="" style="endArrow=none;html=1;strokeWidth=2;" edge="1" parent="1">
                    <mxGeometry width="50" height="50" relative="1" as="geometry">
                        <mxPoint x="449.54999999999995" y="274.8600000000001" as="sourcePoint"/>
                        <mxPoint x="439.54999999999995" y="274.8600000000001" as="targetPoint"/>
                    </mxGeometry>
                </mxCell>
                <mxCell id="50" value="" style="endArrow=none;html=1;strokeWidth=2;" edge="1" parent="1">
                    <mxGeometry width="50" height="50" relative="1" as="geometry">
                        <mxPoint x="449.54999999999995" y="224.86" as="sourcePoint"/>
                        <mxPoint x="439.54999999999995" y="224.86" as="targetPoint"/>
                    </mxGeometry>
                </mxCell>
                <mxCell id="51" value="2" style="text;html=1;strokeColor=none;fillColor=none;align=center;verticalAlign=middle;whiteSpace=wrap;rounded=0;fontSize=32;" vertex="1" parent="1">
                    <mxGeometry x="100" y="234.67000000000002" width="60" height="30" as="geometry"/>
                </mxCell>
                <mxCell id="53" style="edgeStyle=orthogonalEdgeStyle;html=1;fontSize=32;endArrow=block;endFill=1;endSize=20;startArrow=none;entryX=1;entryY=0.25;entryDx=0;entryDy=0;" edge="1" parent="1" source="57" target="59">
                    <mxGeometry relative="1" as="geometry">
                        <mxPoint x="820" y="380" as="targetPoint"/>
                        <mxPoint x="760" y="270" as="sourcePoint"/>
                        <Array as="points">
                            <mxPoint x="820" y="360"/>
                        </Array>
                    </mxGeometry>
                </mxCell>
                <mxCell id="54" value="Point&lt;br&gt;2" style="ellipse;whiteSpace=wrap;html=1;aspect=fixed;fontSize=16;strokeColor=#000000;fillColor=#FF3333;fontColor=#000000;" vertex="1" parent="1">
                    <mxGeometry x="790" y="150" width="60" height="60" as="geometry"/>
                </mxCell>
                <mxCell id="55" value="" style="edgeStyle=orthogonalEdgeStyle;html=1;exitX=1;exitY=0.75;exitDx=0;exitDy=0;fontSize=32;endArrow=none;endFill=1;endSize=20;" edge="1" parent="1" source="3" target="54">
                    <mxGeometry relative="1" as="geometry">
                        <mxPoint x="760" y="220" as="targetPoint"/>
                        <mxPoint x="760" y="100.00000000000023" as="sourcePoint"/>
                        <Array as="points">
                            <mxPoint x="820" y="140"/>
                        </Array>
                    </mxGeometry>
                </mxCell>
                <mxCell id="56" value="Point&lt;br&gt;1" style="ellipse;whiteSpace=wrap;html=1;aspect=fixed;fontSize=16;strokeColor=#000000;fillColor=#FF3333;fontColor=#000000;" vertex="1" parent="1">
                    <mxGeometry x="790" y="10" width="60" height="60" as="geometry"/>
                </mxCell>
                <mxCell id="57" value="Point&lt;br&gt;3" style="ellipse;whiteSpace=wrap;html=1;aspect=fixed;fontSize=16;strokeColor=#000000;fillColor=#FF3333;fontColor=#000000;" vertex="1" parent="1">
                    <mxGeometry x="790" y="280" width="60" height="60" as="geometry"/>
                </mxCell>
                <mxCell id="58" value="" style="edgeStyle=orthogonalEdgeStyle;html=1;exitX=1;exitY=0.75;exitDx=0;exitDy=0;fontSize=32;endArrow=none;endFill=1;endSize=20;" edge="1" parent="1" source="28" target="57">
                    <mxGeometry relative="1" as="geometry">
                        <mxPoint x="820" y="370" as="targetPoint"/>
                        <mxPoint x="760" y="270" as="sourcePoint"/>
                        <Array as="points">
                            <mxPoint x="820" y="270"/>
                        </Array>
                    </mxGeometry>
                </mxCell>
                <mxCell id="59" value="" style="rounded=1;whiteSpace=wrap;html=1;strokeColor=#000000;" vertex="1" parent="1">
                    <mxGeometry x="90" y="340" width="670" height="80" as="geometry"/>
                </mxCell>
                <mxCell id="61" value="4,7" style="text;html=1;strokeColor=none;fillColor=none;align=center;verticalAlign=middle;whiteSpace=wrap;rounded=0;fontSize=22;" vertex="1" parent="1">
                    <mxGeometry x="650" y="365" width="60" height="30" as="geometry"/>
                </mxCell>
                <mxCell id="62" value="t0" style="text;html=1;strokeColor=none;fillColor=none;align=center;verticalAlign=middle;whiteSpace=wrap;rounded=0;fontSize=17;" vertex="1" parent="1">
                    <mxGeometry x="349.83" y="364.66999999999996" width="100" height="30" as="geometry"/>
                </mxCell>
                <mxCell id="63" value="bgt t0 3" style="text;html=1;strokeColor=none;fillColor=none;align=center;verticalAlign=middle;whiteSpace=wrap;rounded=0;fontSize=32;" vertex="1" parent="1">
                    <mxGeometry x="150" y="364.67" width="190" height="30" as="geometry"/>
                </mxCell>
                <mxCell id="64" value="" style="endArrow=none;html=1;strokeWidth=2;" edge="1" parent="1">
                    <mxGeometry width="50" height="50" relative="1" as="geometry">
                        <mxPoint x="750" y="405" as="sourcePoint"/>
                        <mxPoint x="750" y="355" as="targetPoint"/>
                    </mxGeometry>
                </mxCell>
                <mxCell id="65" value="" style="endArrow=none;html=1;strokeWidth=2;" edge="1" parent="1">
                    <mxGeometry width="50" height="50" relative="1" as="geometry">
                        <mxPoint x="750" y="405" as="sourcePoint"/>
                        <mxPoint x="740" y="405" as="targetPoint"/>
                    </mxGeometry>
                </mxCell>
                <mxCell id="66" value="" style="endArrow=none;html=1;strokeWidth=2;" edge="1" parent="1">
                    <mxGeometry width="50" height="50" relative="1" as="geometry">
                        <mxPoint x="750" y="355" as="sourcePoint"/>
                        <mxPoint x="740" y="355" as="targetPoint"/>
                    </mxGeometry>
                </mxCell>
                <mxCell id="67" value="" style="endArrow=none;html=1;strokeWidth=2;" edge="1" parent="1">
                    <mxGeometry width="50" height="50" relative="1" as="geometry">
                        <mxPoint x="610" y="405" as="sourcePoint"/>
                        <mxPoint x="610" y="355" as="targetPoint"/>
                    </mxGeometry>
                </mxCell>
                <mxCell id="68" value="" style="endArrow=none;html=1;strokeWidth=2;" edge="1" parent="1">
                    <mxGeometry width="50" height="50" relative="1" as="geometry">
                        <mxPoint x="620" y="405" as="sourcePoint"/>
                        <mxPoint x="610" y="405" as="targetPoint"/>
                    </mxGeometry>
                </mxCell>
                <mxCell id="69" value="" style="endArrow=none;html=1;strokeWidth=2;" edge="1" parent="1">
                    <mxGeometry width="50" height="50" relative="1" as="geometry">
                        <mxPoint x="620" y="355" as="sourcePoint"/>
                        <mxPoint x="610" y="355" as="targetPoint"/>
                    </mxGeometry>
                </mxCell>
                <mxCell id="70" value="" style="endArrow=none;html=1;strokeWidth=2;" edge="1" parent="1">
                    <mxGeometry width="50" height="50" relative="1" as="geometry">
                        <mxPoint x="470" y="404.8600000000001" as="sourcePoint"/>
                        <mxPoint x="470" y="354.8600000000001" as="targetPoint"/>
                    </mxGeometry>
                </mxCell>
                <mxCell id="71" value="" style="endArrow=none;html=1;strokeWidth=2;" edge="1" parent="1">
                    <mxGeometry width="50" height="50" relative="1" as="geometry">
                        <mxPoint x="480" y="404.8600000000001" as="sourcePoint"/>
                        <mxPoint x="470" y="404.8600000000001" as="targetPoint"/>
                    </mxGeometry>
                </mxCell>
                <mxCell id="72" value="" style="endArrow=none;html=1;strokeWidth=2;" edge="1" parent="1">
                    <mxGeometry width="50" height="50" relative="1" as="geometry">
                        <mxPoint x="480" y="354.8600000000001" as="sourcePoint"/>
                        <mxPoint x="470" y="354.8600000000001" as="targetPoint"/>
                    </mxGeometry>
                </mxCell>
                <mxCell id="73" value="" style="endArrow=none;html=1;strokeWidth=2;" edge="1" parent="1">
                    <mxGeometry width="50" height="50" relative="1" as="geometry">
                        <mxPoint x="590" y="404.3899999999999" as="sourcePoint"/>
                        <mxPoint x="590" y="354.3899999999999" as="targetPoint"/>
                    </mxGeometry>
                </mxCell>
                <mxCell id="74" value="" style="endArrow=none;html=1;strokeWidth=2;" edge="1" parent="1">
                    <mxGeometry width="50" height="50" relative="1" as="geometry">
                        <mxPoint x="590" y="404.3899999999999" as="sourcePoint"/>
                        <mxPoint x="580" y="404.3899999999999" as="targetPoint"/>
                    </mxGeometry>
                </mxCell>
                <mxCell id="75" value="" style="endArrow=none;html=1;strokeWidth=2;" edge="1" parent="1">
                    <mxGeometry width="50" height="50" relative="1" as="geometry">
                        <mxPoint x="590" y="354.3899999999999" as="sourcePoint"/>
                        <mxPoint x="580" y="354.3899999999999" as="targetPoint"/>
                    </mxGeometry>
                </mxCell>
                <mxCell id="76" value="" style="endArrow=none;html=1;strokeWidth=2;" edge="1" parent="1">
                    <mxGeometry width="50" height="50" relative="1" as="geometry">
                        <mxPoint x="349.8299999999997" y="404.5" as="sourcePoint"/>
                        <mxPoint x="349.8299999999997" y="354.5" as="targetPoint"/>
                    </mxGeometry>
                </mxCell>
                <mxCell id="77" value="" style="endArrow=none;html=1;strokeWidth=2;" edge="1" parent="1">
                    <mxGeometry width="50" height="50" relative="1" as="geometry">
                        <mxPoint x="359.8299999999997" y="404.5" as="sourcePoint"/>
                        <mxPoint x="349.8299999999997" y="404.5" as="targetPoint"/>
                    </mxGeometry>
                </mxCell>
                <mxCell id="78" value="" style="endArrow=none;html=1;strokeWidth=2;" edge="1" parent="1">
                    <mxGeometry width="50" height="50" relative="1" as="geometry">
                        <mxPoint x="359.8299999999997" y="354.5" as="sourcePoint"/>
                        <mxPoint x="349.8299999999997" y="354.5" as="targetPoint"/>
                    </mxGeometry>
                </mxCell>
                <mxCell id="79" value="" style="endArrow=none;html=1;strokeWidth=2;" edge="1" parent="1">
                    <mxGeometry width="50" height="50" relative="1" as="geometry">
                        <mxPoint x="449.5499999999997" y="404.8600000000001" as="sourcePoint"/>
                        <mxPoint x="449.5499999999997" y="354.8600000000001" as="targetPoint"/>
                    </mxGeometry>
                </mxCell>
                <mxCell id="80" value="" style="endArrow=none;html=1;strokeWidth=2;" edge="1" parent="1">
                    <mxGeometry width="50" height="50" relative="1" as="geometry">
                        <mxPoint x="449.5499999999997" y="404.8600000000001" as="sourcePoint"/>
                        <mxPoint x="439.5499999999997" y="404.8600000000001" as="targetPoint"/>
                    </mxGeometry>
                </mxCell>
                <mxCell id="81" value="" style="endArrow=none;html=1;strokeWidth=2;" edge="1" parent="1">
                    <mxGeometry width="50" height="50" relative="1" as="geometry">
                        <mxPoint x="449.5499999999997" y="354.8600000000001" as="sourcePoint"/>
                        <mxPoint x="439.5499999999997" y="354.8600000000001" as="targetPoint"/>
                    </mxGeometry>
                </mxCell>
                <mxCell id="82" value="3" style="text;html=1;strokeColor=none;fillColor=none;align=center;verticalAlign=middle;whiteSpace=wrap;rounded=0;fontSize=32;" vertex="1" parent="1">
                    <mxGeometry x="100" y="364.67" width="60" height="30" as="geometry"/>
                </mxCell>
                <mxCell id="83" style="edgeStyle=orthogonalEdgeStyle;html=1;fontSize=32;endArrow=block;endFill=1;endSize=20;startArrow=none;entryX=1;entryY=0.25;entryDx=0;entryDy=0;" edge="1" parent="1" source="136" target="108">
                    <mxGeometry relative="1" as="geometry">
                        <mxPoint x="940" y="560" as="targetPoint"/>
                        <mxPoint x="830" y="350" as="sourcePoint"/>
                        <Array as="points">
                            <mxPoint x="880" y="670"/>
                        </Array>
                    </mxGeometry>
                </mxCell>
                <mxCell id="85" value="" style="rounded=1;whiteSpace=wrap;html=1;strokeColor=#000000;" vertex="1" parent="1">
                    <mxGeometry x="90" y="470" width="670" height="80" as="geometry"/>
                </mxCell>
                <mxCell id="86" value="5" style="text;html=1;strokeColor=none;fillColor=none;align=center;verticalAlign=middle;whiteSpace=wrap;rounded=0;fontSize=22;" vertex="1" parent="1">
                    <mxGeometry x="650" y="495" width="60" height="30" as="geometry"/>
                </mxCell>
                <mxCell id="87" value="..." style="text;html=1;strokeColor=none;fillColor=none;align=center;verticalAlign=middle;whiteSpace=wrap;rounded=0;fontSize=17;" vertex="1" parent="1">
                    <mxGeometry x="349.83" y="494.66999999999996" width="100" height="30" as="geometry"/>
                </mxCell>
                <mxCell id="88" value="..." style="text;html=1;strokeColor=none;fillColor=none;align=center;verticalAlign=middle;whiteSpace=wrap;rounded=0;fontSize=32;" vertex="1" parent="1">
                    <mxGeometry x="150" y="494.67" width="190" height="30" as="geometry"/>
                </mxCell>
                <mxCell id="89" value="" style="endArrow=none;html=1;strokeWidth=2;" edge="1" parent="1">
                    <mxGeometry width="50" height="50" relative="1" as="geometry">
                        <mxPoint x="750" y="535" as="sourcePoint"/>
                        <mxPoint x="750" y="485" as="targetPoint"/>
                    </mxGeometry>
                </mxCell>
                <mxCell id="90" value="" style="endArrow=none;html=1;strokeWidth=2;" edge="1" parent="1">
                    <mxGeometry width="50" height="50" relative="1" as="geometry">
                        <mxPoint x="750" y="535" as="sourcePoint"/>
                        <mxPoint x="740" y="535" as="targetPoint"/>
                    </mxGeometry>
                </mxCell>
                <mxCell id="91" value="" style="endArrow=none;html=1;strokeWidth=2;" edge="1" parent="1">
                    <mxGeometry width="50" height="50" relative="1" as="geometry">
                        <mxPoint x="750" y="485" as="sourcePoint"/>
                        <mxPoint x="740" y="485" as="targetPoint"/>
                    </mxGeometry>
                </mxCell>
                <mxCell id="92" value="" style="endArrow=none;html=1;strokeWidth=2;" edge="1" parent="1">
                    <mxGeometry width="50" height="50" relative="1" as="geometry">
                        <mxPoint x="610" y="535" as="sourcePoint"/>
                        <mxPoint x="610" y="485" as="targetPoint"/>
                    </mxGeometry>
                </mxCell>
                <mxCell id="93" value="" style="endArrow=none;html=1;strokeWidth=2;" edge="1" parent="1">
                    <mxGeometry width="50" height="50" relative="1" as="geometry">
                        <mxPoint x="620" y="535" as="sourcePoint"/>
                        <mxPoint x="610" y="535" as="targetPoint"/>
                    </mxGeometry>
                </mxCell>
                <mxCell id="94" value="" style="endArrow=none;html=1;strokeWidth=2;" edge="1" parent="1">
                    <mxGeometry width="50" height="50" relative="1" as="geometry">
                        <mxPoint x="620" y="485" as="sourcePoint"/>
                        <mxPoint x="610" y="485" as="targetPoint"/>
                    </mxGeometry>
                </mxCell>
                <mxCell id="95" value="" style="endArrow=none;html=1;strokeWidth=2;" edge="1" parent="1">
                    <mxGeometry width="50" height="50" relative="1" as="geometry">
                        <mxPoint x="470" y="534.8600000000001" as="sourcePoint"/>
                        <mxPoint x="470" y="484.8600000000001" as="targetPoint"/>
                    </mxGeometry>
                </mxCell>
                <mxCell id="96" value="" style="endArrow=none;html=1;strokeWidth=2;" edge="1" parent="1">
                    <mxGeometry width="50" height="50" relative="1" as="geometry">
                        <mxPoint x="480" y="534.8600000000001" as="sourcePoint"/>
                        <mxPoint x="470" y="534.8600000000001" as="targetPoint"/>
                    </mxGeometry>
                </mxCell>
                <mxCell id="97" value="" style="endArrow=none;html=1;strokeWidth=2;" edge="1" parent="1">
                    <mxGeometry width="50" height="50" relative="1" as="geometry">
                        <mxPoint x="480" y="484.8600000000001" as="sourcePoint"/>
                        <mxPoint x="470" y="484.8600000000001" as="targetPoint"/>
                    </mxGeometry>
                </mxCell>
                <mxCell id="98" value="" style="endArrow=none;html=1;strokeWidth=2;" edge="1" parent="1">
                    <mxGeometry width="50" height="50" relative="1" as="geometry">
                        <mxPoint x="590" y="534.3899999999999" as="sourcePoint"/>
                        <mxPoint x="590" y="484.3899999999999" as="targetPoint"/>
                    </mxGeometry>
                </mxCell>
                <mxCell id="99" value="" style="endArrow=none;html=1;strokeWidth=2;" edge="1" parent="1">
                    <mxGeometry width="50" height="50" relative="1" as="geometry">
                        <mxPoint x="590" y="534.3899999999999" as="sourcePoint"/>
                        <mxPoint x="580" y="534.3899999999999" as="targetPoint"/>
                    </mxGeometry>
                </mxCell>
                <mxCell id="100" value="" style="endArrow=none;html=1;strokeWidth=2;" edge="1" parent="1">
                    <mxGeometry width="50" height="50" relative="1" as="geometry">
                        <mxPoint x="590" y="484.3899999999999" as="sourcePoint"/>
                        <mxPoint x="580" y="484.3899999999999" as="targetPoint"/>
                    </mxGeometry>
                </mxCell>
                <mxCell id="101" value="" style="endArrow=none;html=1;strokeWidth=2;" edge="1" parent="1">
                    <mxGeometry width="50" height="50" relative="1" as="geometry">
                        <mxPoint x="349.8299999999997" y="534.5" as="sourcePoint"/>
                        <mxPoint x="349.8299999999997" y="484.5" as="targetPoint"/>
                    </mxGeometry>
                </mxCell>
                <mxCell id="102" value="" style="endArrow=none;html=1;strokeWidth=2;" edge="1" parent="1">
                    <mxGeometry width="50" height="50" relative="1" as="geometry">
                        <mxPoint x="359.8299999999997" y="534.5" as="sourcePoint"/>
                        <mxPoint x="349.8299999999997" y="534.5" as="targetPoint"/>
                    </mxGeometry>
                </mxCell>
                <mxCell id="103" value="" style="endArrow=none;html=1;strokeWidth=2;" edge="1" parent="1">
                    <mxGeometry width="50" height="50" relative="1" as="geometry">
                        <mxPoint x="359.8299999999997" y="484.5" as="sourcePoint"/>
                        <mxPoint x="349.8299999999997" y="484.5" as="targetPoint"/>
                    </mxGeometry>
                </mxCell>
                <mxCell id="104" value="" style="endArrow=none;html=1;strokeWidth=2;" edge="1" parent="1">
                    <mxGeometry width="50" height="50" relative="1" as="geometry">
                        <mxPoint x="449.5499999999997" y="534.8600000000001" as="sourcePoint"/>
                        <mxPoint x="449.5499999999997" y="484.8600000000001" as="targetPoint"/>
                    </mxGeometry>
                </mxCell>
                <mxCell id="105" value="" style="endArrow=none;html=1;strokeWidth=2;" edge="1" parent="1">
                    <mxGeometry width="50" height="50" relative="1" as="geometry">
                        <mxPoint x="449.5499999999997" y="534.8600000000001" as="sourcePoint"/>
                        <mxPoint x="439.5499999999997" y="534.8600000000001" as="targetPoint"/>
                    </mxGeometry>
                </mxCell>
                <mxCell id="106" value="" style="endArrow=none;html=1;strokeWidth=2;" edge="1" parent="1">
                    <mxGeometry width="50" height="50" relative="1" as="geometry">
                        <mxPoint x="449.5499999999997" y="484.8600000000001" as="sourcePoint"/>
                        <mxPoint x="439.5499999999997" y="484.8600000000001" as="targetPoint"/>
                    </mxGeometry>
                </mxCell>
                <mxCell id="107" value="4" style="text;html=1;strokeColor=none;fillColor=none;align=center;verticalAlign=middle;whiteSpace=wrap;rounded=0;fontSize=32;" vertex="1" parent="1">
                    <mxGeometry x="100" y="494.67" width="60" height="30" as="geometry"/>
                </mxCell>
                <mxCell id="108" value="" style="rounded=1;whiteSpace=wrap;html=1;strokeColor=#000000;" vertex="1" parent="1">
                    <mxGeometry x="90" y="650" width="670" height="80" as="geometry"/>
                </mxCell>
                <mxCell id="109" value="..." style="text;html=1;strokeColor=none;fillColor=none;align=center;verticalAlign=middle;whiteSpace=wrap;rounded=0;fontSize=22;" vertex="1" parent="1">
                    <mxGeometry x="650" y="675" width="60" height="30" as="geometry"/>
                </mxCell>
                <mxCell id="110" value="..." style="text;html=1;strokeColor=none;fillColor=none;align=center;verticalAlign=middle;whiteSpace=wrap;rounded=0;fontSize=17;" vertex="1" parent="1">
                    <mxGeometry x="349.83" y="674.67" width="100" height="30" as="geometry"/>
                </mxCell>
                <mxCell id="111" value="..." style="text;html=1;strokeColor=none;fillColor=none;align=center;verticalAlign=middle;whiteSpace=wrap;rounded=0;fontSize=32;" vertex="1" parent="1">
                    <mxGeometry x="150" y="674.6700000000001" width="190" height="30" as="geometry"/>
                </mxCell>
                <mxCell id="112" value="" style="endArrow=none;html=1;strokeWidth=2;" edge="1" parent="1">
                    <mxGeometry width="50" height="50" relative="1" as="geometry">
                        <mxPoint x="750" y="715" as="sourcePoint"/>
                        <mxPoint x="750" y="665" as="targetPoint"/>
                    </mxGeometry>
                </mxCell>
                <mxCell id="113" value="" style="endArrow=none;html=1;strokeWidth=2;" edge="1" parent="1">
                    <mxGeometry width="50" height="50" relative="1" as="geometry">
                        <mxPoint x="750" y="715" as="sourcePoint"/>
                        <mxPoint x="740" y="715" as="targetPoint"/>
                    </mxGeometry>
                </mxCell>
                <mxCell id="114" value="" style="endArrow=none;html=1;strokeWidth=2;" edge="1" parent="1">
                    <mxGeometry width="50" height="50" relative="1" as="geometry">
                        <mxPoint x="750" y="665" as="sourcePoint"/>
                        <mxPoint x="740" y="665" as="targetPoint"/>
                    </mxGeometry>
                </mxCell>
                <mxCell id="115" value="" style="endArrow=none;html=1;strokeWidth=2;" edge="1" parent="1">
                    <mxGeometry width="50" height="50" relative="1" as="geometry">
                        <mxPoint x="610" y="715" as="sourcePoint"/>
                        <mxPoint x="610" y="665" as="targetPoint"/>
                    </mxGeometry>
                </mxCell>
                <mxCell id="116" value="" style="endArrow=none;html=1;strokeWidth=2;" edge="1" parent="1">
                    <mxGeometry width="50" height="50" relative="1" as="geometry">
                        <mxPoint x="620" y="715" as="sourcePoint"/>
                        <mxPoint x="610" y="715" as="targetPoint"/>
                    </mxGeometry>
                </mxCell>
                <mxCell id="117" value="" style="endArrow=none;html=1;strokeWidth=2;" edge="1" parent="1">
                    <mxGeometry width="50" height="50" relative="1" as="geometry">
                        <mxPoint x="620" y="665" as="sourcePoint"/>
                        <mxPoint x="610" y="665" as="targetPoint"/>
                    </mxGeometry>
                </mxCell>
                <mxCell id="118" value="" style="endArrow=none;html=1;strokeWidth=2;" edge="1" parent="1">
                    <mxGeometry width="50" height="50" relative="1" as="geometry">
                        <mxPoint x="470" y="714.8600000000001" as="sourcePoint"/>
                        <mxPoint x="470" y="664.8600000000001" as="targetPoint"/>
                    </mxGeometry>
                </mxCell>
                <mxCell id="119" value="" style="endArrow=none;html=1;strokeWidth=2;" edge="1" parent="1">
                    <mxGeometry width="50" height="50" relative="1" as="geometry">
                        <mxPoint x="480" y="714.8600000000001" as="sourcePoint"/>
                        <mxPoint x="470" y="714.8600000000001" as="targetPoint"/>
                    </mxGeometry>
                </mxCell>
                <mxCell id="120" value="" style="endArrow=none;html=1;strokeWidth=2;" edge="1" parent="1">
                    <mxGeometry width="50" height="50" relative="1" as="geometry">
                        <mxPoint x="480" y="664.8600000000001" as="sourcePoint"/>
                        <mxPoint x="470" y="664.8600000000001" as="targetPoint"/>
                    </mxGeometry>
                </mxCell>
                <mxCell id="121" value="" style="endArrow=none;html=1;strokeWidth=2;" edge="1" parent="1">
                    <mxGeometry width="50" height="50" relative="1" as="geometry">
                        <mxPoint x="590" y="714.3899999999999" as="sourcePoint"/>
                        <mxPoint x="590" y="664.3899999999999" as="targetPoint"/>
                    </mxGeometry>
                </mxCell>
                <mxCell id="122" value="" style="endArrow=none;html=1;strokeWidth=2;" edge="1" parent="1">
                    <mxGeometry width="50" height="50" relative="1" as="geometry">
                        <mxPoint x="590" y="714.3899999999999" as="sourcePoint"/>
                        <mxPoint x="580" y="714.3899999999999" as="targetPoint"/>
                    </mxGeometry>
                </mxCell>
                <mxCell id="123" value="" style="endArrow=none;html=1;strokeWidth=2;" edge="1" parent="1">
                    <mxGeometry width="50" height="50" relative="1" as="geometry">
                        <mxPoint x="590" y="664.3899999999999" as="sourcePoint"/>
                        <mxPoint x="580" y="664.3899999999999" as="targetPoint"/>
                    </mxGeometry>
                </mxCell>
                <mxCell id="124" value="" style="endArrow=none;html=1;strokeWidth=2;" edge="1" parent="1">
                    <mxGeometry width="50" height="50" relative="1" as="geometry">
                        <mxPoint x="349.8299999999997" y="714.5" as="sourcePoint"/>
                        <mxPoint x="349.8299999999997" y="664.5" as="targetPoint"/>
                    </mxGeometry>
                </mxCell>
                <mxCell id="125" value="" style="endArrow=none;html=1;strokeWidth=2;" edge="1" parent="1">
                    <mxGeometry width="50" height="50" relative="1" as="geometry">
                        <mxPoint x="359.8299999999997" y="714.5" as="sourcePoint"/>
                        <mxPoint x="349.8299999999997" y="714.5" as="targetPoint"/>
                    </mxGeometry>
                </mxCell>
                <mxCell id="126" value="" style="endArrow=none;html=1;strokeWidth=2;" edge="1" parent="1">
                    <mxGeometry width="50" height="50" relative="1" as="geometry">
                        <mxPoint x="359.8299999999997" y="664.5" as="sourcePoint"/>
                        <mxPoint x="349.8299999999997" y="664.5" as="targetPoint"/>
                    </mxGeometry>
                </mxCell>
                <mxCell id="127" value="" style="endArrow=none;html=1;strokeWidth=2;" edge="1" parent="1">
                    <mxGeometry width="50" height="50" relative="1" as="geometry">
                        <mxPoint x="449.5499999999997" y="714.8600000000001" as="sourcePoint"/>
                        <mxPoint x="449.5499999999997" y="664.8600000000001" as="targetPoint"/>
                    </mxGeometry>
                </mxCell>
                <mxCell id="128" value="" style="endArrow=none;html=1;strokeWidth=2;" edge="1" parent="1">
                    <mxGeometry width="50" height="50" relative="1" as="geometry">
                        <mxPoint x="449.5499999999997" y="714.8600000000001" as="sourcePoint"/>
                        <mxPoint x="439.5499999999997" y="714.8600000000001" as="targetPoint"/>
                    </mxGeometry>
                </mxCell>
                <mxCell id="129" value="" style="endArrow=none;html=1;strokeWidth=2;" edge="1" parent="1">
                    <mxGeometry width="50" height="50" relative="1" as="geometry">
                        <mxPoint x="449.5499999999997" y="664.8600000000001" as="sourcePoint"/>
                        <mxPoint x="439.5499999999997" y="664.8600000000001" as="targetPoint"/>
                    </mxGeometry>
                </mxCell>
                <mxCell id="130" value="7" style="text;html=1;strokeColor=none;fillColor=none;align=center;verticalAlign=middle;whiteSpace=wrap;rounded=0;fontSize=32;" vertex="1" parent="1">
                    <mxGeometry x="100" y="674.6700000000001" width="60" height="30" as="geometry"/>
                </mxCell>
                <mxCell id="131" value="..." style="text;html=1;strokeColor=none;fillColor=none;align=center;verticalAlign=middle;whiteSpace=wrap;rounded=0;fontSize=70;fontStyle=1" vertex="1" parent="1">
                    <mxGeometry x="90" y="580" width="670" height="30" as="geometry"/>
                </mxCell>
                <mxCell id="132" style="edgeStyle=orthogonalEdgeStyle;html=1;fontSize=32;endArrow=block;endFill=1;endSize=20;startArrow=none;exitX=1;exitY=0.75;exitDx=0;exitDy=0;entryX=0.5;entryY=0;entryDx=0;entryDy=0;" edge="1" parent="1" source="85" target="140">
                    <mxGeometry relative="1" as="geometry">
                        <mxPoint x="820" y="570" as="targetPoint"/>
                        <mxPoint x="770" y="410" as="sourcePoint"/>
                        <Array as="points">
                            <mxPoint x="820" y="530"/>
                        </Array>
                    </mxGeometry>
                </mxCell>
                <mxCell id="133" value="..." style="text;html=1;strokeColor=none;fillColor=none;align=center;verticalAlign=middle;whiteSpace=wrap;rounded=0;fontSize=17;" vertex="1" parent="1">
                    <mxGeometry x="480" y="494.66999999999996" width="100" height="30" as="geometry"/>
                </mxCell>
                <mxCell id="134" value="Point&lt;br&gt;4" style="ellipse;whiteSpace=wrap;html=1;aspect=fixed;fontSize=16;strokeColor=#000000;fillColor=#FF3333;fontColor=#000000;" vertex="1" parent="1">
                    <mxGeometry x="790" y="410" width="60" height="60" as="geometry"/>
                </mxCell>
                <mxCell id="135" value="" style="edgeStyle=orthogonalEdgeStyle;html=1;fontSize=32;endArrow=none;endFill=1;endSize=20;startArrow=none;exitX=1;exitY=0.75;exitDx=0;exitDy=0;" edge="1" parent="1" source="59" target="134">
                    <mxGeometry relative="1" as="geometry">
                        <mxPoint x="760" y="490" as="targetPoint"/>
                        <mxPoint x="760" y="400" as="sourcePoint"/>
                        <Array as="points">
                            <mxPoint x="820" y="400"/>
                        </Array>
                    </mxGeometry>
                </mxCell>
                <mxCell id="136" value="Point&lt;br&gt;5" style="ellipse;whiteSpace=wrap;html=1;aspect=fixed;fontSize=16;strokeColor=#000000;fillColor=#FF3333;fontColor=#000000;" vertex="1" parent="1">
                    <mxGeometry x="850" y="510" width="60" height="60" as="geometry"/>
                </mxCell>
                <mxCell id="137" value="" style="edgeStyle=orthogonalEdgeStyle;html=1;fontSize=32;endArrow=none;endFill=1;endSize=20;startArrow=none;exitX=1;exitY=0.75;exitDx=0;exitDy=0;" edge="1" parent="1" source="59" target="136">
                    <mxGeometry relative="1" as="geometry">
                        <mxPoint x="760" y="670" as="targetPoint"/>
                        <mxPoint x="760" y="400" as="sourcePoint"/>
                        <Array as="points"/>
                    </mxGeometry>
                </mxCell>
                <mxCell id="139" style="edgeStyle=orthogonalEdgeStyle;html=1;fontSize=32;endArrow=block;endFill=1;endSize=20;startArrow=none;entryX=1;entryY=0.25;entryDx=0;entryDy=0;" edge="1" parent="1" source="134" target="85">
                    <mxGeometry relative="1" as="geometry">
                        <mxPoint x="830" y="580" as="targetPoint"/>
                        <mxPoint x="770" y="540" as="sourcePoint"/>
                        <Array as="points">
                            <mxPoint x="820" y="490"/>
                        </Array>
                    </mxGeometry>
                </mxCell>
                <mxCell id="140" value="..." style="text;html=1;strokeColor=none;fillColor=none;align=center;verticalAlign=bottom;whiteSpace=wrap;rounded=0;fontSize=50;fontStyle=1" vertex="1" parent="1">
                    <mxGeometry x="785" y="590" width="70" height="30" as="geometry"/>
                </mxCell>
                <mxCell id="141" value="..." style="text;html=1;strokeColor=none;fillColor=none;align=center;verticalAlign=middle;whiteSpace=wrap;rounded=0;fontSize=17;" vertex="1" parent="1">
                    <mxGeometry x="480" y="675" width="100" height="30" as="geometry"/>
                </mxCell>
                <mxCell id="142" style="edgeStyle=orthogonalEdgeStyle;html=1;fontSize=32;endArrow=block;endFill=1;endSize=20;startArrow=none;exitX=1;exitY=0.75;exitDx=0;exitDy=0;entryX=0.5;entryY=0;entryDx=0;entryDy=0;" edge="1" parent="1" source="108" target="143">
                    <mxGeometry relative="1" as="geometry">
                        <mxPoint x="820" y="790" as="targetPoint"/>
                        <mxPoint x="770" y="540" as="sourcePoint"/>
                        <Array as="points">
                            <mxPoint x="820" y="710"/>
                        </Array>
                    </mxGeometry>
                </mxCell>
            </root>
        </mxGraphModel>
    </diagram>
</mxfile>